<svg width="16" height="22" viewBox="0 0 16 22" fill="none" xmlns="http://www.w3.org/2000/svg">
<path id="Vector" d="M8 16.2266C7.46957 16.2266 6.96086 16.0158 6.58579 15.6408C6.21071 15.2657 6 14.757 6 14.2266C6 13.1166 6.89 12.2266 8 12.2266C8.53043 12.2266 9.03914 12.4373 9.41421 12.8123C9.78929 13.1874 10 13.6961 10 14.2266C10 14.757 9.78929 15.2657 9.41421 15.6408C9.03914 16.0158 8.53043 16.2266 8 16.2266ZM14 19.2266V9.22656H2V19.2266H14ZM14 7.22656C14.5304 7.22656 15.0391 7.43728 15.4142 7.81235C15.7893 8.18742 16 8.69613 16 9.22656V19.2266C16 19.757 15.7893 20.2657 15.4142 20.6408C15.0391 21.0158 14.5304 21.2266 14 21.2266H2C1.46957 21.2266 0.960859 21.0158 0.585786 20.6408C0.210714 20.2657 0 19.757 0 19.2266V9.22656C0 8.11656 0.89 7.22656 2 7.22656H3V5.22656C3 3.90048 3.52678 2.62871 4.46447 1.69103C5.40215 0.753347 6.67392 0.226563 8 0.226562C8.65661 0.226562 9.30679 0.355891 9.91342 0.607165C10.52 0.858438 11.0712 1.22674 11.5355 1.69103C11.9998 2.15532 12.3681 2.70652 12.6194 3.31315C12.8707 3.91977 13 4.56995 13 5.22656V7.22656H14ZM8 2.22656C7.20435 2.22656 6.44129 2.54263 5.87868 3.10524C5.31607 3.66785 5 4.43091 5 5.22656V7.22656H11V5.22656C11 4.43091 10.6839 3.66785 10.1213 3.10524C9.55871 2.54263 8.79565 2.22656 8 2.22656Z" fill="black" fill-opacity="0.2"/>
</svg>
