<svg width="40" height="36" viewBox="0 0 40 36" fill="none" xmlns="http://www.w3.org/2000/svg">
<g id="Youtube">
<g id="Youtube_2">
<path id="back" d="M4.9502 17.6629C4.9502 7.90795 12.6992 0 22.258 0C31.8168 0 39.5658 7.90795 39.5658 17.6629C39.5658 27.4178 31.8168 35.3258 22.258 35.3258C12.6992 35.3258 4.9502 27.4178 4.9502 17.6629Z" fill="#FF0000"/>
<path id="Fill-1" d="M31.1032 13.3021C30.8909 12.4697 30.2653 11.8142 29.4709 11.5918C28.0313 11.1875 22.2582 11.1875 22.2582 11.1875C22.2582 11.1875 16.485 11.1875 15.0453 11.5918C14.251 11.8142 13.6254 12.4697 13.413 13.3021C13.0273 14.8106 13.0273 17.9583 13.0273 17.9583C13.0273 17.9583 13.0273 21.1058 13.413 22.6145C13.6254 23.4469 14.251 24.1023 15.0453 24.3249C16.485 24.729 22.2582 24.729 22.2582 24.729C22.2582 24.729 28.0313 24.729 29.4709 24.3249C30.2653 24.1023 30.8909 23.4469 31.1032 22.6145C31.489 21.1058 31.489 17.9583 31.489 17.9583C31.489 17.9583 31.489 14.8106 31.1032 13.3021Z" fill="white"/>
<path id="Fill-2" d="M20.5273 21.1943V15.3066L25.1428 18.2506L20.5273 21.1943Z" fill="#FF0000"/>
</g>
</g>
</svg>
